<?xml version="1.0" encoding="utf-8"?>
<svg viewBox="0 0 298.563 287.233" width="298.563" height="287.233" xmlns="http://www.w3.org/2000/svg" xmlns:bx="https://boxy-svg.com">
  <path style="stroke: rgb(0, 0, 0);" transform="matrix(0.672947, 0, 0, 0.644992, -30.569164, -18.023081)" d="M 238.264 103.504 L 295.845 103.504 L 306.904 163.358 A 94.859 94.859 0 0 1 336.611 184.941 L 396.953 176.963 L 414.746 231.726 L 361.239 260.739 A 94.859 94.859 0 0 1 349.892 295.662 L 376.127 350.585 L 329.543 384.43 L 285.415 342.507 A 94.859 94.859 0 0 1 248.695 342.507 L 204.567 384.43 L 157.983 350.585 L 184.218 295.662 A 94.859 94.859 0 0 1 172.87 260.739 L 119.363 231.726 L 137.157 176.963 L 197.499 184.941 A 94.859 94.859 0 0 1 227.206 163.358 Z M 267.055 249.441 A 0 0 0 0 0 267.055 249.441 A 0 0 0 0 0 267.055 249.441" bx:shape="cog 267.055 249.441 0 94.859 145.938 0.38 5 1@4e1642bd"/>
</svg>