<?xml version="1.0" encoding="utf-8"?>
<svg viewBox="0 0 298.563 287.233" width="298.563" height="287.233" xmlns="http://www.w3.org/2000/svg" xmlns:bx="https://boxy-svg.com">
  <path style="stroke: rgb(0, 0, 0);" transform="matrix(0.672947, 0, 0, 0.678224, -34.633137, -67.370872)" d="M 271.275 151.918 L 271.275 151.918 L 308.449 211.618 A 97.141 97.141 0 0 1 308.449 211.618 L 376.95 195.69 L 376.95 195.69 L 361.022 264.191 A 97.141 97.141 0 0 1 361.022 264.191 L 420.722 301.365 L 420.722 301.365 L 361.022 338.539 A 97.141 97.141 0 0 1 361.022 338.539 L 376.95 407.04 L 376.95 407.04 L 308.449 391.112 A 97.141 97.141 0 0 1 308.449 391.112 L 271.275 450.812 L 271.275 450.812 L 234.101 391.112 A 97.141 97.141 0 0 1 234.101 391.112 L 165.6 407.04 L 165.6 407.04 L 181.528 338.539 A 97.141 97.141 0 0 1 181.528 338.539 L 121.828 301.365 L 121.828 301.365 L 181.528 264.191 A 97.141 97.141 0 0 1 181.528 264.191 L 165.6 195.69 L 165.6 195.69 L 234.101 211.618 A 97.141 97.141 0 0 1 234.101 211.618 Z M 271.275 268.636 A 32.729 32.729 0 0 0 271.275 334.094 A 32.729 32.729 0 0 0 271.275 268.636" bx:shape="cog 271.275 301.365 32.729 97.141 149.447 1 8 1@a01c7734"/>
</svg>